<?xml version="1.0" encoding="UTF-8" standalone="no"?>
<svg
   version="1.2"
   viewBox="0 0 1499 1499"
   width="1499"
   height="1499"
   id="svg1"
   sodipodi:docname="DennysLogo.svg"
   inkscape:version="1.4 (e7c3feb1, 2024-10-09)"
   xmlns:inkscape="http://www.inkscape.org/namespaces/inkscape"
   xmlns:sodipodi="http://sodipodi.sourceforge.net/DTD/sodipodi-0.dtd"
   xmlns="http://www.w3.org/2000/svg"
   xmlns:svg="http://www.w3.org/2000/svg"
   xmlns:rdf="http://www.w3.org/1999/02/22-rdf-syntax-ns#"
   xmlns:cc="http://creativecommons.org/ns#"
   xmlns:dc="http://purl.org/dc/elements/1.1/">
  <defs
     id="defs1" />
  <sodipodi:namedview
     id="namedview1"
     pagecolor="#ffffff"
     bordercolor="#666666"
     borderopacity="1.0"
     inkscape:showpageshadow="2"
     inkscape:pageopacity="0.0"
     inkscape:pagecheckerboard="0"
     inkscape:deskcolor="#d1d1d1"
     inkscape:zoom="0.21748161"
     inkscape:cx="101.15798"
     inkscape:cy="657.52686"
     inkscape:window-width="1512"
     inkscape:window-height="917"
     inkscape:window-x="0"
     inkscape:window-y="65"
     inkscape:window-maximized="0"
     inkscape:current-layer="svg1" />
  <title
     id="title1">dennys-svg</title>
  <style
     id="style1">
		.s0 { fill: #ce3439 } 
	</style>
  <rect
     style="fill:#ffd31a;fill-opacity:1;stroke:#000000;stroke-width:0;stroke-dasharray:none"
     id="rect1"
     width="1850.5277"
     height="1932.9906"
     x="-227.70636"
     y="-164.00267"
     ry="0" />
  <g
     id="Page-1"
     transform="matrix(0.80771115,0,0,0.80771115,304.78599,143.83497)">
    <g
       id="Property-1=Initial">
      <g
         id="Group">
        <path
           id="Shape"
           fill-rule="evenodd"
           class="s0"
           d="m 776.5,1437.9 c -172,81.3 -692.5,59 -770.1,55.3 q -1.6,0 -2.9,-0.8 -1.4,-0.8 -2.1,-2.2 c -0.5,-0.9 -0.8,-1.9 -0.8,-2.9 0.1,-1 0.4,-2 0.9,-2.9 L 88.7,1348.1 95.2,1309.8 94,169.4 1.7,15.2 C 1.1,14.4 0.9,13.3 0.9,12.3 0.8,11.3 1.1,10.2 1.7,9.4 2.2,8.5 2.9,7.7 3.9,7.2 4.8,6.7 5.8,6.5 6.9,6.6 c 143.8,11.7 783.6,-85 967.1,221 171.5,258.2 119,675.1 119,675.1 -27.7,305.6 -155.2,453.6 -316.5,535.2 z M 692,489.3 c -3.5,-26.9 -12.3,-52.7 -26.1,-75.9 -13.8,-23.3 -32.2,-43.5 -54,-59.4 -21.9,-15.9 -46.7,-27.1 -73.1,-33.1 -26.4,-5.9 -53.7,-6.4 -80.2,-1.4 q -1.1,0 -2.1,0.4 -1,0.5 -1.7,1.2 c -0.5,0.6 -0.9,1.2 -1.1,1.8 q -0.4,1 -0.4,2.1 l 2.7,826.1 c 0.1,1.2 0.6,2.4 1.4,3.4 0.8,1 1.8,1.7 3,2.1 25.6,6.4 52.1,7.3 78.1,2.8 25.9,-4.5 50.6,-14.5 72.5,-29.1 21.9,-14.7 40.4,-33.8 54.4,-56.1 14.1,-22.3 23.3,-47.2 27.1,-73.3 C 744.7,794.8 692,489.3 692,489.3 Z" />
      </g>
    </g>
  </g>
  <metadata
     id="metadata1">
    <rdf:RDF>
      <cc:Work
         rdf:about="">
        <dc:title>dennys-svg</dc:title>
      </cc:Work>
    </rdf:RDF>
  </metadata>
</svg>
