<svg version="1.2" xmlns="http://www.w3.org/2000/svg" viewBox="0 0 1101 1499" width="1101" height="1499">
	<title>dennys-svg</title>
	<style>
		.s0 { fill: #ce3439 } 
	</style>
	<g id="Page-1">
		<g id="Property-1=Initial">
			<g id="Group">
				<path id="Shape" fill-rule="evenodd" class="s0" d="m776.5 1437.9c-172 81.3-692.5 59-770.1 55.3q-1.6 0-2.9-0.8-1.4-0.8-2.1-2.2c-0.5-0.9-0.8-1.9-0.8-2.9 0.1-1 0.4-2 0.9-2.9l87.2-136.3 6.5-38.3-1.2-1140.4-92.3-154.2c-0.6-0.8-0.8-1.9-0.8-2.9-0.1-1 0.2-2.1 0.8-2.9 0.5-0.9 1.2-1.7 2.2-2.2 0.9-0.5 1.9-0.7 3-0.6 143.8 11.7 783.6-85 967.1 221 171.5 258.2 119 675.1 119 675.1-27.7 305.6-155.2 453.6-316.5 535.2zm-84.5-948.6c-3.5-26.9-12.3-52.7-26.1-75.9-13.8-23.3-32.2-43.5-54-59.4-21.9-15.9-46.7-27.1-73.1-33.1-26.4-5.9-53.7-6.4-80.2-1.4q-1.1 0-2.1 0.4-1 0.5-1.7 1.2c-0.5 0.6-0.9 1.2-1.1 1.8q-0.4 1-0.4 2.1l2.7 826.1c0.1 1.2 0.6 2.4 1.4 3.4 0.8 1 1.8 1.7 3 2.1 25.6 6.4 52.1 7.3 78.1 2.8 25.9-4.5 50.6-14.5 72.5-29.1 21.9-14.7 40.4-33.8 54.4-56.1 14.1-22.3 23.3-47.2 27.1-73.3 52.2-206.1-0.5-511.6-0.5-511.6z"/>
			</g>
		</g>
	</g>
</svg>